<?xml version="1.0" encoding="utf-8"?>
<svg xmlns="http://www.w3.org/2000/svg" xmlns:xlink="http://www.w3.org/1999/xlink" style="margin: auto; background: rgb(4, 4, 4); display: block; shape-rendering: auto;" width="222px" height="222px" viewBox="0 0 100 100" preserveAspectRatio="xMidYMid">
<g transform="translate(50 50)">
<g>
<animateTransform attributeName="transform" type="rotate" values="0;40" keyTimes="0;1" dur="0.29940119760479045s" repeatCount="indefinite"></animateTransform><path d="M15.803480629279107 -2.5 L22.803480629279107 -2.5 L22.803480629279107 2.5 L15.803480629279107 2.5 A16 16 0 0 1 13.71313754221402 8.243170430624398 L13.71313754221402 8.243170430624398 L19.075448644046865 12.742683698430174 L15.86151059561417 16.572905914025064 L10.499199493781322 12.07339264621929 A16 16 0 0 1 5.206264994599471 15.129269804124988 L5.206264994599471 15.129269804124988 L6.4218022382679845 22.022924075210444 L1.4977634732069462 22.891164963545098 L0.28222622953843324 15.99751069245964 A16 16 0 0 1 -5.736676805178456 14.936215693170995 L-5.736676805178456 14.936215693170995 L-9.236676805178455 20.998393519662066 L-13.566803824100646 18.498393519662066 L-10.066803824100647 12.436215693170997 A16 16 0 0 1 -13.99536377175245 7.754340261835242 L-13.99536377175245 7.754340261835242 L-20.57321211725381 10.148481265114924 L-22.28331283388215 5.450018161185385 L-15.705464488380793 3.055877157905703 A16 16 0 0 1 -15.705464488380795 -3.055877157905699 L-15.705464488380795 -3.055877157905699 L-22.283312833882153 -5.45001816118538 L-20.57321211725381 -10.14848126511492 L-13.995363771752451 -7.754340261835239 A16 16 0 0 1 -10.066803824100656 -12.43621569317099 L-10.066803824100656 -12.43621569317099 L-13.56680382410066 -18.49839351966206 L-9.236676805178469 -20.99839351966206 L-5.736676805178465 -14.936215693170992 A16 16 0 0 1 0.28222622953842574 -15.99751069245964 L0.28222622953842574 -15.99751069245964 L1.4977634732069356 -22.891164963545098 L6.421802238267974 -22.022924075210447 L5.206264994599464 -15.129269804124991 A16 16 0 0 1 10.49919949378132 -12.073392646219292 L10.49919949378132 -12.073392646219292 L15.861510595614167 -16.572905914025068 L19.075448644046862 -12.74268369843018 L13.713137542214016 -8.243170430624405 A16 16 0 0 1 15.803480629279107 -2.5000000000000027 M0 -9A9 9 0 1 0 0 9 A9 9 0 1 0 0 -9" fill="#ffa000"></path></g></g>
<!-- [ldio] generated by https://loading.io/ --></svg>