<svg xmlns="http://www.w3.org/2000/svg" width="1104.98" height="845" viewBox="0 0 1104.98 845">
  <g id="Path_9" data-name="Path 9" fill="#303f9f">
    <path d="M 1104.1005859375 844.5 L 0.499948650598526 844.5 L 0.499948650598526 2.67789626121521 C 1.575706005096436 5.385360240936279 3.560545206069946 10.20138263702393 6.524234294891357 16.70928573608398 C 10.89194869995117 26.30042839050293 18.34323501586914 41.64099884033203 29.03666305541992 60.25657272338867 C 41.05437850952148 81.1778564453125 54.63480758666992 101.888427734375 69.40037536621094 121.8130035400391 C 87.85723114013672 146.7185668945312 108.2289505004883 170.4594268798828 129.9495239257812 192.3762817382812 C 185.2393798828125 248.1657104492188 249.4963836669922 292.6177062988281 320.9353637695312 324.49755859375 C 410.2278137207031 364.3444213867188 511.0526733398438 384.548583984375 620.609375 384.548583984375 C 627.1032104492188 384.548583984375 633.81494140625 384.9920043945312 640.55810546875 385.86669921875 C 647.1597900390625 386.7229919433594 653.9739379882812 388.0161437988281 660.8115234375 389.7102966308594 C 674.0416870117188 392.9884338378906 687.8955078125 397.9002990722656 701.9884033203125 404.3092956542969 C 715.4318237304688 410.4228515625 729.4469604492188 418.0599975585938 743.64453125 427.0084228515625 C 757.13623046875 435.5119934082031 771.1453857421875 445.4218444824219 785.2826538085938 456.4628601074219 C 834.2072143554688 494.6718444824219 886.8607788085938 547.9551391601562 941.7810668945312 614.8324584960938 C 963.3602294921875 641.10986328125 985.344970703125 669.5745849609375 1007.124816894531 699.4359741210938 C 1024.549194335938 723.326171875 1041.88232421875 748.15869140625 1058.642333984375 773.2438354492188 C 1084.629760742188 812.1394653320312 1101.21533203125 839.672607421875 1104.1005859375 844.5 Z" stroke="none"/>
    <path d="M 1 5.24853515625 L 1 844 L 1103.21826171875 844 C 1099.329956054688 837.51953125 1083.075805664062 810.7133178710938 1058.219848632812 773.5112915039062 C 1041.463134765625 748.4315795898438 1024.133666992188 723.6045532226562 1006.712951660156 699.7198486328125 C 984.9387817382812 669.8665771484375 962.9600830078125 641.4100341796875 941.3870849609375 615.1405639648438 C 886.4912109375 548.2938232421875 833.8651123046875 495.0384216308594 784.9705200195312 456.8535766601562 C 770.8468017578125 445.8232727050781 756.851806640625 435.923583984375 743.3746337890625 427.4292907714844 C 729.1964111328125 418.4932861328125 715.20166015625 410.867431640625 701.779052734375 404.763427734375 C 687.7144775390625 398.367431640625 673.8902587890625 393.4660034179688 660.6902465820312 390.1954345703125 C 653.8712158203125 388.505859375 647.075927734375 387.2162780761719 640.4932250976562 386.3624267578125 C 633.771484375 385.4905700683594 627.0816650390625 385.048583984375 620.609375 385.048583984375 C 510.9821166992188 385.048583984375 410.0886840820312 364.8298645019531 320.731689453125 324.9541625976562 C 249.2357788085938 293.0490112304688 184.927978515625 248.5618286132812 129.5943603515625 192.7281494140625 C 107.8571166992188 170.79443359375 87.46966552734375 147.0352783203125 68.9986572265625 122.1107177734375 C 54.2215576171875 102.1707153320312 40.6304931640625 81.4437255859375 28.6031494140625 60.5057373046875 C 17.89990234375 41.8731689453125 10.44140625 26.5174560546875 6.0692138671875 16.91656494140625 C 3.833984375 12.00811767578125 2.1539306640625 8.05889892578125 1 5.24853515625 M 0 0 C 0 0 140.609375 384.048583984375 620.609375 384.048583984375 C 832.2893676757812 384.048583984375 1104.98046875 845 1104.98046875 845 L 0 845 L 0 0 Z" stroke="none" fill="#707070"/>
  </g>
</svg>
